PathFileType	4	(X/Y/Z)	/Users/itak/Documents/Research/Walk-IL/dataset/trc/00558_00009.trc
DataRate	CameraRate	NumFrames	NumMarkers	Units	OrigDataRate	OrigDataStartFrame	OrigNumFrames
100.000000	100.000000	4	54	mm	100.000000	0	456
Frame#	Time	RPSI			LPSI			L3			STRN			T10			C7			CLAV			RBAK			LBAK			LSHO			LUPA			LAEL			LAOL			LWTS			LWPS			LFRA			LIFD			LHPS			LHTS			RSHO			RUPA			RAEL			RAOL			RWTS			RWPS			RFRA			RHTS			RHPS			RBHD			LFHD			RFHD			LBHD			LHIP			RHIP			RASI			LASI			LKNE			LTHI			LANK			LTIP			LTOE			LMT1			LMT5			LHEE			RKNE			RTHI			RANK			RTIP			RTOE			RMT1			RMT5			RHEE			RIFD			*53			
		X1	Y1	Z1	X2	Y2	Z2	X3	Y3	Z3	X4	Y4	Z4	X5	Y5	Z5	X6	Y6	Z6	X7	Y7	Z7	X8	Y8	Z8	X9	Y9	Z9	X10	Y10	Z10	X11	Y11	Z11	X12	Y12	Z12	X13	Y13	Z13	X14	Y14	Z14	X15	Y15	Z15	X16	Y16	Z16	X17	Y17	Z17	X18	Y18	Z18	X19	Y19	Z19	X20	Y20	Z20	X21	Y21	Z21	X22	Y22	Z22	X23	Y23	Z23	X24	Y24	Z24	X25	Y25	Z25	X26	Y26	Z26	X27	Y27	Z27	X28	Y28	Z28	X29	Y29	Z29	X30	Y30	Z30	X31	Y31	Z31	X32	Y32	Z32	X33	Y33	Z33	X34	Y34	Z34	X35	Y35	Z35	X36	Y36	Z36	X37	Y37	Z37	X38	Y38	Z38	X39	Y39	Z39	X40	Y40	Z40	X41	Y41	Z41	X42	Y42	Z42	X43	Y43	Z43	X44	Y44	Z44	X45	Y45	Z45	X46	Y46	Z46	X47	Y47	Z47	X48	Y48	Z48	X49	Y49	Z49	X50	Y50	Z50	X51	Y51	Z51	X52	Y52	Z52	X53	Y53	Z53	X54	Y54	Z54	

1	0	-1577.182495117188	1016.380981445312	-345.6022033691406	-1532.904907226562	1020.096313476562	-471.4456176757812	-1548.025390625	1106.740234375	-408.8545532226562	-1322.557373046875	1291.78857421875	-349.219482421875	-1555.239990234375	1233.554565429688	-413.2915954589844	-1508.911499023438	1506.489135742188	-385.3366088867188	-1338.89013671875	1403.075317382812	-354.1074523925781	-1602.062255859375	1382.739868164062	-322.5072326660156	-1520.97509765625	1455.302124023438	-481.7321166992188	-1406.8818359375	1482.22509765625	-536.7222900390625	-1401.177368164062	1357.80859375	-619.949462890625	-1375.951293945312	1137.751098632812	-641.1099243164062	-1472.879150390625	1128.040893554688	-615.5618896484375	-1294.034790039062	899.7369384765625	-565.5451049804688	-1315.321899414062	875.3096923828125	-646.5363159179688	-1349.9248046875	1052.254516601562	-640.9266357421875	-1293.39404296875	726.387939453125	-568.2344360351562	-1304.608520507812	816.59716796875	-637.1587524414062	-1266.895385742188	825.2783813476562	-580.1757202148438	-1492.9052734375	1468.671020507812	-222.8799285888672	-1529.948852539062	1404.885986328125	-163.5228118896484	-1548.219482421875	1117.647583007812	-116.604362487793	-1597.112060546875	1100.905883789062	-153.2210693359375	-1409.238647460938	897.7927856445312	-128.8339080810547	-1466.848510742188	877.79052734375	-72.16253662109375	-1540.036987304688	1062.307495117188	-107.0862503051758	-1383.451904296875	807.291259765625	-105.9816741943359	-1448.82421875	804.5986938476562	-66.63988494873047	-1451.45166015625	1684.12548828125	-308.3660278320312	-1260.624389648438	1706.562255859375	-388.5101928710938	-1321.757690429688	1703.779296875	-257.5780334472656	-1374.606079101562	1685.339721679688	-454.890869140625	-1373.94189453125	936.9430541992188	-556.9649658203125	-1499.3515625	937.841552734375	-194.4032135009766	-1397.150268554688	968.3114013671875	-221.4094085693359	-1312.034912109375	963.4143676757812	-485.2333984375	-1370.88818359375	491.1368713378906	-488.8497619628906	-1360.11376953125	657.5214233398438	-526.6735229492188	-1470.442749023438	30.66207695007324	-501.5682678222656	-1442.461059570312	247.7520446777344	-508.0767517089844	-1285.433349609375	35.50971984863281	-384.7100830078125	-1366.228271484375	37.39402389526367	-372.0144348144531	-1348.18359375	33.68505477905273	-477.6669311523438	-1553.4111328125	27.69646072387695	-470.3796691894531	-1458.953979492188	493.5770568847656	-230.9446411132812	-1463.718505859375	784.3153076171875	-182.0703430175781	-1571.847412109375	32.3502082824707	-280.02392578125	-1465.316650390625	349.8224487304688	-247.2589569091797	-1347.936401367188	36.89339447021484	-251.9125671386719	-1396.379516601562	36.08115768432617	-312.4393005371094	-1449.809936523438	36.23978424072266	-221.6957244873047	-1606.271362304688	20.02107048034668	-348.5548095703125	-1405.556762695312	728.8814086914062	-128.1795806884766	nan	nan	nan	
2	0.01	-1577.18994140625	1016.342163085938	-345.6544799804688	-1532.914184570312	1019.987487792969	-471.5359191894531	-1548.081787109375	1106.663818359375	-408.93701171875	-1322.65771484375	1291.805053710938	-349.2922973632812	-1555.337524414062	1233.524047851562	-413.3575744628906	-1509.094360351562	1506.453979492188	-385.46435546875	-1339.005004882812	1403.098510742188	-354.1940002441406	-1602.145874023438	1382.696533203125	-322.5708618164062	-1521.141967773438	1455.25341796875	-481.869140625	-1407.051391601562	1482.239013671875	-536.8467407226562	-1401.0927734375	1357.815551757812	-619.9935913085938	-1375.381225585938	1137.776000976562	-640.8956909179688	-1472.316528320312	1127.755981445312	-615.5297241210938	-1292.44677734375	900.4844360351562	-564.693603515625	-1313.514404296875	875.6099853515625	-645.628173828125	-1348.890625	1052.396850585938	-640.4905395507812	-1292.92431640625	725.8927612304688	-566.1055297851562	-1302.731079101562	817.0133056640625	-636.0039672851562	-1265.131103515625	825.8877563476562	-579.14013671875	-1492.987060546875	1468.641357421875	-222.9747467041016	-1529.998168945312	1404.839721679688	-163.5934906005859	-1548.089965820312	1117.5693359375	-116.6741485595703	-1596.985961914062	1100.799194335938	-153.3173217773438	-1408.771362304688	897.8265380859375	-129.2048645019531	-1466.553955078125	877.8021240234375	-72.2254638671875	-1539.869995117188	1062.233764648438	-107.1858825683594	-1382.988891601562	807.4092407226562	-106.1602554321289	-1448.3310546875	804.6402587890625	-66.81589508056641	-1451.597534179688	1684.096313476562	-308.4290771484375	-1260.708374023438	1706.561645507812	-388.5532836914062	-1321.836059570312	1703.748779296875	-257.6819152832031	-1374.764404296875	1685.338134765625	-454.9454650878906	-1373.892578125	936.8524169921875	-557.0159301757812	-1499.273681640625	937.8347778320312	-194.4585418701172	-1397.1015625	968.3201293945312	-221.4822540283203	-1312.049560546875	963.4122924804688	-485.3281555175781	-1370.7998046875	491.16552734375	-488.9476623535156	-1360.088134765625	657.5248413085938	-526.7221069335938	-1470.436767578125	30.64683723449707	-501.5811767578125	-1442.39501953125	247.7747955322266	-508.1040954589844	-1285.43115234375	35.46702575683594	-384.7707214355469	-1366.235107421875	37.40055084228516	-372.0215454101562	-1348.182983398438	33.6818962097168	-477.6709899902344	-1553.280639648438	27.53750991821289	-470.3004150390625	-1458.8369140625	493.5787353515625	-230.9614105224609	-1463.637084960938	784.3028564453125	-182.0733947753906	-1571.840942382812	32.35710525512695	-280.0227661132812	-1465.2236328125	349.8245849609375	-247.2518310546875	-1347.9111328125	36.87961196899414	-251.9416351318359	-1396.37353515625	36.08106994628906	-312.4387817382812	-1449.803833007812	36.24085235595703	-221.7048034667969	-1606.285034179688	20.06483459472656	-348.5696716308594	-1404.66552734375	728.7504272460938	-128.0105133056641	nan	nan	nan	
3	0.02	-1577.193115234375	1016.291015625	-345.7205810546875	-1532.923461914062	1019.862060546875	-471.6496887207031	-1548.1455078125	1106.578979492188	-409.0382995605469	-1322.776245117188	1291.828002929688	-349.3965759277344	-1555.450317382812	1233.480102539062	-413.4517822265625	-1509.333129882812	1506.416748046875	-385.62744140625	-1339.148681640625	1403.1259765625	-354.2910766601562	-1602.253051757812	1382.635986328125	-322.6582641601562	-1521.346923828125	1455.19287109375	-482.0423889160156	-1407.2587890625	1482.251220703125	-536.994140625	-1400.981567382812	1357.822265625	-620.0535888671875	-1374.654296875	1137.813720703125	-640.6328125	-1471.610717773438	1127.409912109375	-615.5003662109375	-1290.537109375	901.3441162109375	-563.6013793945312	-1311.29833984375	875.9909057617188	-644.4912719726562	-1347.629150390625	1052.57373046875	-639.94580078125	-1291.546875	725.7977294921875	-563.826904296875	-1300.365600585938	817.5064697265625	-634.57470703125	-1263.015747070312	826.6160888671875	-577.8316650390625	-1493.101806640625	1468.603637695312	-223.0989685058594	-1530.067993164062	1404.780883789062	-163.6813659667969	-1547.931274414062	1117.472412109375	-116.7604064941406	-1596.820190429688	1100.653564453125	-153.4772796630859	-1408.217651367188	897.8751220703125	-129.6095123291016	-1466.164428710938	877.818359375	-72.32724761962891	-1539.66650390625	1062.136596679688	-107.3038787841797	-1382.40625	807.5653686523438	-106.376823425293	-1447.718505859375	804.695556640625	-67.01792144775391	-1451.774536132812	1684.05810546875	-308.509033203125	-1260.822265625	1706.559814453125	-388.6080627441406	-1321.941772460938	1703.705444335938	-257.8062744140625	-1374.955688476562	1685.34130859375	-455.0193786621094	-1373.81689453125	936.7382202148438	-557.0785522460938	-1499.17041015625	937.8271484375	-194.5380401611328	-1397.045776367188	968.3314208984375	-221.5663146972656	-1312.085815429688	963.3954467773438	-485.4279479980469	-1370.704223632812	491.1947937011719	-489.0522766113281	-1360.059936523438	657.5243530273438	-526.7865600585938	-1470.430908203125	30.62644386291504	-501.6002502441406	-1442.292114257812	247.8170928955078	-508.1347045898438	-1285.423828125	35.39805603027344	-384.8713073730469	-1366.24365234375	37.41045761108398	-372.0317687988281	-1348.180419921875	33.67729568481445	-477.6768798828125	-1553.163940429688	27.3930549621582	-470.2335205078125	-1458.69091796875	493.5814514160156	-230.9825744628906	-1463.509033203125	784.2946166992188	-182.1222991943359	-1571.832763671875	32.36447906494141	-280.0209045410156	-1465.105590820312	349.8269653320312	-247.2407684326172	-1347.881713867188	36.8640022277832	-251.9748687744141	-1396.368041992188	36.07991027832031	-312.4387817382812	-1449.7958984375	36.24207305908203	-221.7161407470703	-1606.2880859375	20.10286712646484	-348.5806274414062	-1403.568969726562	728.60205078125	-127.7770156860352	nan	nan	nan	
4	0.03	-1577.188598632812	1016.229858398438	-345.7971496582031	-1532.929809570312	1019.728942871094	-471.7822265625	-1548.21142578125	1106.492919921875	-409.1537170410156	-1322.9033203125	1291.857543945312	-349.5340881347656	-1555.571044921875	1233.423706054688	-413.5742797851562	-1509.620849609375	1506.382080078125	-385.8181457519531	-1339.315185546875	1403.15576171875	-354.3899230957031	-1602.381713867188	1382.557495117188	-322.7682800292969	-1521.57666015625	1455.122680664062	-482.2440795898438	-1407.492309570312	1482.258666992188	-537.1541748046875	-1400.84521484375	1357.826416015625	-620.1285400390625	-1373.7958984375	1137.864013671875	-640.33447265625	-1470.786376953125	1127.019897460938	-615.480712890625	-1288.416625976562	902.258544921875	-562.3111572265625	-1308.787109375	876.4354858398438	-643.1727905273438	-1346.207153320312	1052.77685546875	-639.3146362304688	-1289.100708007812	726.2696533203125	-561.6041259765625	-1297.617309570312	818.0477294921875	-632.9388427734375	-1260.676025390625	827.4218139648438	-576.3108520507812	-1493.250732421875	1468.559204101562	-223.2499389648438	-1530.158447265625	1404.711669921875	-163.7828826904297	-1547.751831054688	1117.361206054688	-116.8606262207031	-1596.618286132812	1100.47509765625	-153.7006988525391	-1407.61181640625	897.9403686523438	-130.0084381103516	-1465.688354492188	877.8397216796875	-72.47195434570312	-1539.4375	1062.019775390625	-107.431755065918	-1381.730712890625	807.7554321289062	-106.6173553466797	-1447.016235351562	804.7647094726562	-67.22852325439453	-1451.973754882812	1684.013916015625	-308.6039123535156	-1260.967407226562	1706.555908203125	-388.6745300292969	-1322.07470703125	1703.649658203125	-257.9440002441406	-1375.16943359375	1685.351440429688	-455.1120300292969	-1373.70751953125	936.60400390625	-557.1472778320312	-1499.047607421875	937.818115234375	-194.6416625976562	-1396.987182617188	968.3451538085938	-221.6558532714844	-1312.154174804688	963.3560791015625	-485.5193481445312	-1370.61181640625	491.2225646972656	-489.1555480957031	-1360.027465820312	657.5144653320312	-526.8654174804688	-1470.42626953125	30.60148048400879	-501.625244140625	-1442.15185546875	247.8840179443359	-508.1651611328125	-1285.41064453125	35.30107498168945	-385.014892578125	-1366.253784179688	37.42352294921875	-372.0439147949219	-1348.17578125	33.67159271240234	-477.6847229003906	-1553.081787109375	27.28783798217773	-470.1911926269531	-1458.523559570312	493.5847473144531	-231.0066986083984	-1463.332275390625	784.2913208007812	-182.2318420410156	-1571.823608398438	32.37178039550781	-280.0187683105469	-1464.967651367188	349.8300170898438	-247.2255249023438	-1347.8525390625	36.84930801391602	-252.0068664550781	-1396.363403320312	36.07759857177734	-312.4381713867188	-1449.786865234375	36.24337768554688	-221.7288055419922	-1606.279541015625	20.13244819641113	-348.5865478515625	-1402.322265625	728.4500122070312	-127.4890289306641	nan	nan	nan	
